<?xml version="1.0" encoding="UTF-8" standalone="no"?>
<!-- Generator: Adobe Illustrator 16.0.0, SVG Export Plug-In . SVG Version: 6.00 Build 0)  -->

<svg
   xmlns:dc="http://purl.org/dc/elements/1.1/"
   xmlns:cc="http://creativecommons.org/ns#"
   xmlns:rdf="http://www.w3.org/1999/02/22-rdf-syntax-ns#"
   xmlns:svg="http://www.w3.org/2000/svg"
   xmlns="http://www.w3.org/2000/svg"
   xmlns:sodipodi="http://sodipodi.sourceforge.net/DTD/sodipodi-0.dtd"
   xmlns:inkscape="http://www.inkscape.org/namespaces/inkscape"
   version="1.1"
   id="Layer_1"
   x="0px"
   y="0px"
 width="64" height="32"
   viewBox="0 0 1000 555.528"
   enable-background="new 0 0 1000 555.528"
   xml:space="preserve"
   sodipodi:docname="Verizon (2000) (Print).svg"
   inkscape:version="0.92.3 (2405546, 2018-03-11)"><metadata
   id="metadata6198"><rdf:RDF><cc:Work
       rdf:about=""><dc:format>image/svg+xml</dc:format><dc:type
         rdf:resource="http://purl.org/dc/dcmitype/StillImage" /><dc:title></dc:title></cc:Work></rdf:RDF></metadata><defs
   id="defs6196">
	
	
	
	
</defs><sodipodi:namedview
   pagecolor="#ffffff"
   bordercolor="#666666"
   borderopacity="1"
   objecttolerance="10"
   gridtolerance="10"
   guidetolerance="10"
   inkscape:pageopacity="0"
   inkscape:pageshadow="2"
   inkscape:window-width="1360"
   inkscape:window-height="706"
   id="namedview6194"
   showgrid="false"
   inkscape:zoom="0.568"
   inkscape:cx="476.79651"
   inkscape:cy="209.61918"
   inkscape:window-x="-8"
   inkscape:window-y="-8"
   inkscape:window-maximized="1"
   inkscape:current-layer="Layer_1" />
<g
   id="g6757"><path
     d="m 450.629,364.274 6.31,-35.819 h 50.341 l -6.314,35.819 z M 71.794,507.308 50.103,380.49 h 50.342 l 8.141,80.105 36.149,-80.105 h 48.399 L 127.941,507.307 H 71.794 Z m 696.462,0 22.363,-126.817 h 45.985 l -3.504,19.846 c 14.067,-15.25 27.859,-23.48 46.978,-23.48 33.404,0 45.676,19.612 39.528,54.459 l -13.395,75.993 H 855.87 l 11.811,-67.041 c 2.22,-12.587 0.798,-23.714 -13.481,-23.714 -15.489,0 -21.35,9.923 -24.208,26.145 l -11.399,64.61 h -50.337 z m -447.062,0 22.36,-126.817 h 45.741 l -4.527,25.651 h 0.482 c 10.52,-19.841 24.526,-29.286 44.127,-29.286 2.181,0 4.27,0.483 6.408,0.728 l -8.871,50.341 c -3.299,-0.478 -6.765,-1.448 -10.15,-1.448 -20.573,0 -32.688,9.678 -37.505,37.027 l -7.729,43.805 h -50.336 z m 383.792,-96.566 c -17.188,0 -25.386,17.66 -27.898,31.955 -4.22,23.947 2.898,34.364 15.719,34.364 13.558,0 23.621,-10.417 27.848,-34.364 3.286,-18.647 -2.475,-32.676 -15.669,-31.955 m -80.865,34.609 c 7.759,-44.049 41.103,-68.495 83.946,-68.495 44.775,0 67.72,26.384 60.758,65.842 -8.191,46.458 -43.489,68.24 -84.151,68.24 -40.658,0 -68.197,-22.272 -60.553,-65.587 M 228.483,429.617 h 45.738 c 2.048,-11.615 -6.519,-22.027 -18.378,-22.027 -15.006,0 -24.97,8.474 -27.36,22.027 m 91.559,25.656 h -96.083 c -2.64,15.006 7.224,24.924 20.535,24.924 7.989,0 15.885,-3.624 20.844,-11.133 h 48.156 c -14.258,31.468 -48.039,41.873 -77.563,41.873 -40.661,0 -68.023,-23.231 -60.518,-65.826 7.341,-41.634 43.254,-68.256 83.914,-68.256 46.945,0 69.549,32.432 60.715,78.418 m 155.707,52.035 H 425.412 L 447.77,380.49 h 50.342 z"
     id="path6177"
     inkscape:connector-curvature="0"
     style="clip-rule:evenodd;fill-rule:evenodd" /><g
     style=""
     id="g6181">
		<polygon
   points="159.465,330.045 121.899,343.718 0,8.8 24.11,0.027 137.237,310.834 150.689,305.94 "
   id="polygon6179"
   style="" />
	</g><g
     style=""
     id="g6185">
		<polygon
   points="1000,24.11 121.899,343.718 109.354,309.239 133.461,300.461 137.237,310.834 991.227,0 "
   id="polygon6183"
   style="" />
	</g><g
     style=""
     id="g6189">
		<polygon
   points="568.11,417.263 505.188,417.263 511.763,380.484 631.988,380.484 626.183,412.907 545.367,518.761 614.133,518.761 904.15,518.761 897.672,555.528 607.558,555.528 482.01,555.528 487.809,523.112 "
   id="polygon6187"
   style="" />
	</g></g>
</svg>